<svg id="visual" viewBox="0 0 900 600" width="900" height="600" xmlns="http://www.w3.org/2000/svg" xmlns:xlink="http://www.w3.org/1999/xlink" version="1.1"><path d="M0 376L21.5 379.2C43 382.3 86 388.7 128.8 396.3C171.7 404 214.3 413 257.2 413.5C300 414 343 406 385.8 413.3C428.7 420.7 471.3 443.3 514.2 450.5C557 457.7 600 449.3 642.8 451.5C685.7 453.7 728.3 466.3 771.2 469.8C814 473.3 857 467.7 878.5 464.8L900 462L900 601L878.5 601C857 601 814 601 771.2 601C728.3 601 685.7 601 642.8 601C600 601 557 601 514.2 601C471.3 601 428.7 601 385.8 601C343 601 300 601 257.2 601C214.3 601 171.7 601 128.8 601C86 601 43 601 21.5 601L0 601Z" fill="#00c3ef" stroke-linecap="round" stroke-linejoin="miter"></path></svg>